<?xml version="1.0" standalone="no"?>
<!DOCTYPE svg PUBLIC "-//W3C//DTD SVG 20010904//EN"
 "http://www.w3.org/TR/2001/REC-SVG-20010904/DTD/svg10.dtd">
<svg version="1.0" xmlns="http://www.w3.org/2000/svg"
 width="640.000000pt" height="640.000000pt" viewBox="0 0 640.000000 640.000000"
 preserveAspectRatio="xMidYMid meet">
<metadata>
Created by potrace 1.14, written by Peter Selinger 2001-2017
</metadata>
<g transform="translate(0.000000,640.000000) scale(0.100000,-0.100000)"
fill="#000000" stroke="none">
<path d="M0 6278 c1 -112 2 -121 16 -103 8 11 17 30 21 43 3 12 9 22 14 22 5
0 9 6 9 13 0 14 105 97 123 97 5 0 20 11 33 25 l23 25 -119 0 -120 0 0 -122z"/>
<path d="M273 6380 c-48 -21 -55 -43 -24 -81 17 -21 21 -22 60 -11 53 16 64 9
56 -37 -8 -49 10 -66 51 -51 30 12 64 43 64 58 0 5 -9 17 -20 27 -10 9 -25 34
-31 54 -6 20 -16 42 -22 49 -14 18 -85 14 -134 -8z"/>
<path d="M1225 6379 c-27 -11 -68 -26 -90 -34 -22 -8 -78 -28 -125 -45 -47
-17 -182 -62 -300 -101 -118 -39 -260 -86 -315 -104 -141 -47 -366 -107 -382
-101 -9 4 -13 -5 -13 -34 0 -25 5 -40 13 -40 6 0 59 18 117 41 243 93 313 119
326 119 8 0 22 4 32 10 9 5 94 35 187 66 176 58 405 138 440 154 11 5 36 13
55 19 72 22 190 64 190 67 0 11 -92 -1 -135 -17z"/>
<path d="M3190 6388 c-14 -5 -81 -25 -150 -43 -69 -19 -192 -52 -275 -75 -82
-22 -199 -54 -260 -70 -60 -17 -173 -48 -250 -71 -77 -22 -158 -44 -180 -49
-22 -4 -80 -19 -130 -33 -49 -14 -135 -37 -190 -52 -134 -35 -130 -34 -118
-46 10 -10 165 19 218 40 11 5 58 18 105 30 91 22 212 54 460 121 85 23 198
53 250 67 52 14 109 29 125 33 17 5 73 20 125 34 52 13 131 34 175 46 44 13
96 26 115 31 55 12 155 40 159 45 9 9 -156 2 -179 -8z"/>
<path d="M3868 6393 c6 -2 18 -2 25 0 6 3 1 5 -13 5 -14 0 -19 -2 -12 -5z"/>
<path d="M5765 6365 c28 -20 57 -41 65 -48 9 -6 51 -36 95 -66 44 -30 112 -77
150 -106 62 -46 280 -198 313 -218 8 -6 12 -1 12 17 0 20 -17 36 -90 85 -112
75 -249 173 -400 285 -99 74 -121 86 -155 86 l-40 0 50 -35z"/>
<path d="M6072 6377 c47 -40 62 -51 138 -109 42 -31 82 -63 89 -72 7 -9 18
-16 23 -16 5 0 21 -11 36 -25 15 -14 30 -25 34 -25 22 0 0 23 -73 76 -45 32
-94 69 -108 81 -14 13 -31 26 -36 30 -6 5 -31 25 -57 46 -49 39 -92 53 -46 14z"/>
<path d="M6230 6395 c0 -3 82 -70 158 -128 8 -7 12 -5 12 6 0 19 -132 127
-154 127 -9 0 -16 -2 -16 -5z"/>
<path d="M6375 6390 c3 -5 10 -10 16 -10 5 0 9 5 9 10 0 6 -7 10 -16 10 -8 0
-12 -4 -9 -10z"/>
<path d="M3921 6376 c2 -2 15 -9 29 -15 24 -11 24 -11 6 3 -16 13 -49 24 -35
12z"/>
<path d="M5065 6370 c3 -5 11 -10 16 -10 6 0 7 5 4 10 -3 6 -11 10 -16 10 -6
0 -7 -4 -4 -10z"/>
<path d="M5648 6298 c-37 -43 -46 -92 -23 -118 25 -28 43 -25 47 8 3 25 6 27
42 25 40 -3 65 15 66 47 0 15 -74 70 -95 70 -5 0 -22 -15 -37 -32z"/>
<path d="M4070 6306 c8 -8 26 -16 40 -20 23 -5 23 -4 -2 6 -16 7 -28 15 -28
20 0 4 -5 8 -12 8 -8 0 -8 -4 2 -14z"/>
<path d="M4260 6216 c0 -2 7 -7 16 -10 8 -3 12 -2 9 4 -6 10 -25 14 -25 6z"/>
<path d="M1535 6205 c-22 -8 -403 -128 -592 -187 -187 -58 -203 -65 -203 -86
0 -14 5 -22 13 -20 6 2 77 25 157 50 80 26 201 65 270 87 69 22 168 56 221 74
53 19 111 37 129 41 35 6 60 22 60 37 0 9 -34 11 -55 4z"/>
<path d="M4555 6080 c27 -12 43 -12 25 0 -8 5 -22 9 -30 9 -10 0 -8 -3 5 -9z"/>
<path d="M1240 5959 c-129 -38 -269 -78 -310 -90 -41 -12 -80 -26 -87 -32 -13
-14 2 -96 43 -235 15 -48 32 -108 39 -133 14 -49 31 -390 40 -799 3 -140 8
-318 11 -396 5 -157 5 -157 -60 -168 -21 -4 -52 -13 -70 -21 -17 -7 -42 -17
-56 -23 -24 -9 -24 -10 -5 -18 11 -4 30 -18 42 -31 21 -22 30 -24 110 -21 85
2 87 2 94 -22 18 -66 17 -68 -71 -67 -45 0 -85 -4 -90 -9 -5 -5 3 -23 19 -43
27 -33 32 -35 90 -35 33 0 61 -3 61 -6 -2 -22 -41 -116 -52 -122 -7 -4 -60
-26 -118 -48 -58 -23 -133 -55 -166 -71 -34 -16 -67 -29 -74 -29 -6 0 -21 -5
-33 -12 -12 -6 -59 -13 -104 -14 -45 -2 -115 -12 -155 -23 -40 -10 -93 -22
-118 -25 l-45 -7 25 20 c29 24 21 27 -19 6 -27 -13 -29 -13 -39 10 -7 14 -7
25 -2 27 17 6 -12 78 -31 78 -9 0 -19 -6 -22 -12 -2 -7 -2 9 1 37 3 28 13 58
24 69 10 11 18 22 18 25 -1 18 -30 40 -55 43 -16 1 -30 8 -32 14 -6 18 85 23
434 22 208 -1 328 2 330 8 2 7 -62 11 -174 13 -146 1 -371 12 -468 21 -11 1
-41 2 -67 3 -43 0 -47 2 -52 30 -3 16 -6 59 -6 96 0 80 -8 111 -26 111 -12 0
-14 -310 -14 -2040 l0 -2040 3200 0 3200 0 0 1849 0 1850 -21 6 c-11 4 -47 23
-79 42 -54 31 -58 37 -50 58 12 31 -12 60 -65 79 -22 8 -39 19 -37 26 1 6 4
105 7 218 3 187 17 366 32 416 11 38 21 -8 28 -124 3 -63 8 -127 11 -142 5
-25 6 -26 23 -10 10 9 26 22 36 27 14 9 19 29 24 100 l6 89 40 0 c40 1 40 1
43 44 2 33 0 42 -12 42 -9 0 -16 -9 -16 -20 0 -11 -7 -20 -15 -20 -8 0 -15 7
-15 15 0 8 4 15 8 15 4 0 8 24 8 53 0 33 8 67 22 94 23 44 31 143 12 143 -5 0
-10 -4 -10 -10 0 -5 -9 -10 -20 -10 -17 0 -20 6 -18 42 1 35 5 43 30 52 21 8
28 17 28 37 0 15 -6 29 -12 32 -10 4 -10 7 0 18 15 16 18 409 2 409 -5 0 -81
-7 -169 -15 l-159 -15 -58 25 c-54 24 -58 24 -76 8 -16 -15 -40 -17 -141 -18
l-122 0 -7 -45 c-3 -25 -7 -82 -7 -127 l-1 -83 -46 0 -46 0 44 -33 43 -33 6
-89 c11 -144 10 -283 -1 -290 -6 -4 -24 -7 -40 -7 l-30 -1 37 -32 c39 -34 39
-32 33 -180 -1 -16 2 -47 6 -67 12 -72 73 -54 74 22 0 62 13 140 21 140 5 0 9
-54 9 -120 l0 -120 -27 -5 c-16 -4 -46 -10 -68 -15 -22 -5 -89 -14 -150 -20
-60 -6 -114 -15 -118 -19 -12 -12 43 -132 77 -169 17 -18 69 -51 116 -73 148
-70 194 -95 198 -107 5 -16 -80 -104 -158 -163 -67 -51 -94 -61 -83 -33 4 12
2 15 -8 12 -19 -6 -32 9 -52 60 -10 25 -13 42 -6 42 5 0 7 5 4 10 -4 6 -11 8
-16 5 -5 -4 -9 3 -9 14 0 11 -6 26 -14 33 -7 8 -23 34 -35 58 -29 62 -55 104
-63 108 -5 2 -8 10 -8 17 0 8 -10 20 -22 26 -41 22 -100 90 -100 115 0 27 -18
46 -34 36 -6 -4 -15 -25 -20 -47 -10 -42 -44 -64 -44 -28 0 11 -4 23 -9 29 -6
5 -11 34 -11 64 -2 58 -17 110 -31 110 -5 0 -9 9 -9 20 0 31 -37 138 -73 208
-25 50 -38 65 -59 69 -16 3 -28 9 -28 14 0 5 -7 9 -15 9 -19 0 -31 48 -18 69
11 17 -6 95 -19 93 -4 -1 -29 8 -55 19 -27 12 -64 23 -83 26 -19 3 -43 12 -52
20 -18 16 -116 21 -156 9 -12 -4 -31 -4 -43 -1 -16 5 -18 9 -8 21 15 18 74 44
100 44 11 0 19 5 19 10 0 6 6 10 14 10 26 0 38 25 25 54 -7 14 -16 26 -21 26
-4 0 -8 6 -8 13 0 8 -20 22 -44 32 -25 10 -43 22 -40 27 3 4 -2 8 -11 8 -19 0
-65 29 -65 42 0 5 10 22 22 39 29 38 120 80 180 81 41 1 53 -4 100 -43 54 -44
118 -119 118 -139 0 -28 65 -142 98 -172 83 -73 117 -99 138 -104 14 -4 29
-20 38 -42 12 -29 15 -32 15 -14 1 31 34 29 60 -4 22 -28 29 -60 10 -48 -13 8
-2 -34 14 -55 9 -11 14 -9 28 8 22 28 50 26 71 -4 16 -21 18 -41 9 -97 -2 -13
-46 -9 -67 7 -30 22 -35 18 -28 -22 8 -45 23 -78 24 -52 0 9 9 19 19 22 16 4
23 -5 39 -46 l19 -51 11 77 c7 43 12 91 12 107 0 20 5 30 15 30 19 0 19 19 1
45 -7 11 -16 51 -19 88 -4 43 -14 81 -27 102 -25 40 -76 85 -96 85 -8 0 -14 5
-14 10 0 6 3 10 8 10 14 0 82 -51 82 -61 0 -6 4 -8 9 -4 6 3 6 18 0 38 -6 17
-11 70 -13 117 -3 82 -4 88 -45 147 -52 77 -103 123 -166 152 -28 12 -61 28
-75 36 -109 61 -275 114 -297 95 -4 -4 -44 -2 -88 3 -49 6 -96 7 -120 1 l-40
-9 60 -2 c33 -2 76 -6 95 -10 31 -6 28 -8 -35 -15 -38 -4 -90 -12 -115 -17
l-45 -10 43 2 c23 2 42 -1 42 -5 0 -5 -15 -8 -34 -8 -18 0 -45 -9 -59 -20 -14
-11 -38 -20 -54 -21 l-28 -1 25 -8 c29 -9 22 -12 -60 -31 -30 -7 -59 -18 -65
-25 -10 -11 -117 -34 -164 -34 -18 0 -21 4 -16 20 3 11 2 20 -2 20 -11 0 -53
-55 -53 -70 0 -6 -7 -27 -16 -48 -8 -20 -14 -38 -12 -39 2 -1 -14 -19 -34 -40
-20 -21 -46 -59 -58 -85 l-21 -48 22 -50 c17 -39 20 -61 15 -100 -6 -46 -5
-50 24 -72 27 -19 30 -27 26 -58 -5 -39 7 -65 86 -175 27 -36 55 -80 64 -98 9
-18 24 -39 34 -47 10 -8 25 -40 35 -70 21 -68 64 -148 141 -264 99 -149 92
-132 62 -156 -44 -34 -86 -118 -94 -187 l-7 -63 -51 -18 c-28 -11 -62 -23 -76
-27 -14 -4 -50 -24 -80 -43 -30 -19 -86 -52 -125 -72 -132 -69 -170 -93 -195
-123 -14 -16 -39 -46 -56 -66 -51 -60 -70 -93 -104 -174 -25 -59 -36 -77 -49
-73 -9 3 -61 7 -116 11 -245 14 -229 10 -298 76 -34 32 -81 77 -103 99 -23 23
-58 46 -78 51 -31 8 -36 14 -36 39 0 37 -11 43 -85 46 -34 1 -76 9 -92 18 -60
31 -141 56 -171 54 -19 -1 -42 7 -63 23 -19 14 -56 38 -82 53 -37 21 -47 32
-45 49 2 16 -1 21 -12 18 -8 -2 -24 -5 -35 -6 -11 -1 -27 -4 -35 -8 -8 -3 -26
-7 -40 -9 -16 -2 -26 -11 -30 -28 -5 -22 -11 -25 -50 -25 -25 0 -45 -5 -47
-12 -3 -9 -10 -10 -23 -3 -15 8 -21 6 -29 -8 -11 -21 -119 -56 -143 -47 -9 3
-21 17 -28 31 -12 21 -11 27 3 42 14 13 21 14 36 5 11 -7 22 -8 28 -2 5 5 36
14 68 20 84 15 195 49 195 60 0 5 9 9 20 9 24 0 27 15 4 24 -11 4 -13 13 -8
28 3 13 11 25 15 26 5 2 9 10 9 18 0 8 11 37 25 64 13 27 39 93 56 147 17 54
36 103 43 108 7 6 25 51 41 100 15 50 34 109 41 133 8 23 14 59 14 79 0 19 4
52 9 72 5 20 15 61 22 91 6 30 18 65 26 77 17 26 19 115 4 206 -6 37 -9 72 -6
76 3 5 -2 22 -10 37 -8 16 -15 36 -15 44 -1 19 -35 125 -55 166 -20 43 -162
174 -221 204 -27 14 -55 30 -62 37 -8 7 -17 11 -22 8 -4 -3 -15 7 -25 21 -9
15 -23 24 -33 21 -9 -2 -30 3 -46 11 -15 7 -44 15 -63 17 -21 2 -41 11 -49 24
-19 27 -59 27 -78 0 -22 -33 -103 -29 -133 6 -29 33 -35 32 -31 -7 l3 -33 -45
3 c-25 2 -58 -2 -74 -8 -30 -11 -70 -48 -78 -71 -3 -9 -6 -8 -11 4 -4 12 2 22
19 33 l25 17 -1 231 c-1 283 -5 316 -34 315 -11 0 -127 -32 -256 -70z m3734
-505 c18 -7 21 -30 6 -39 -6 -3 -17 1 -26 9 -8 9 -22 16 -30 16 -8 0 -12 5 -9
10 7 11 35 13 59 4z m-3524 -38 c0 -3 -4 -8 -10 -11 -5 -3 -10 -1 -10 4 0 6 5
11 10 11 6 0 10 -2 10 -4z m3741 -103 c13 -16 12 -17 -3 -4 -17 13 -22 21 -14
21 2 0 10 -8 17 -17z m-3791 -12 c-1 -14 -69 -85 -76 -79 -3 4 6 21 20 39 15
17 25 37 22 44 -3 8 2 11 15 8 10 -3 19 -8 19 -12z m-61 -14 c-9 -7 -14 -17
-12 -24 2 -6 -5 -16 -15 -22 -11 -6 -32 -31 -46 -56 -15 -25 -32 -43 -37 -39
-10 6 -2 20 29 52 6 7 12 19 12 25 0 15 72 88 79 81 3 -3 -1 -11 -10 -17z
m2697 -29 c-52 -32 -56 -33 -56 -15 0 6 17 24 38 39 27 19 40 23 50 15 10 -8
3 -17 -32 -39z m-2808 -145 c-8 -10 -18 -27 -22 -37 -3 -10 -9 -16 -12 -13 -8
8 25 67 38 67 7 0 5 -7 -4 -17z m-12 -128 c-4 -14 -11 -25 -16 -25 -14 0 -12
44 2 58 16 16 22 0 14 -33z m5149 14 c0 -7 -8 -15 -17 -17 -18 -3 -25 18 -11
32 10 10 28 1 28 -15z m-1098 -66 c30 -41 53 -90 53 -110 -1 -10 -7 -3 -16 17
-20 46 -43 70 -67 70 -13 0 -17 5 -13 16 3 9 6 20 6 25 0 17 16 9 37 -18z
m-4076 -76 c-8 -8 -11 -7 -11 4 0 20 13 34 18 19 3 -7 -1 -17 -7 -23z m5169
-85 c0 -11 -22 -32 -32 -32 -5 0 -4 9 2 20 11 20 30 28 30 12z m-2273 -104
c-3 -8 -6 -5 -6 6 -1 11 2 17 5 13 3 -3 4 -12 1 -19z m-2892 -8 c0 -8 -14 -17
-32 -21 -26 -5 -30 -3 -25 10 11 32 57 41 57 11z m3284 -55 c13 -19 31 -35 40
-35 24 -1 60 -34 58 -56 -1 -11 7 -23 21 -29 47 -21 36 -84 -13 -69 -11 4 -33
7 -50 8 -16 0 -36 5 -43 9 -20 14 -96 4 -104 -13 -5 -11 -7 -9 -7 8 -1 21 10
30 63 46 17 6 17 8 1 32 -12 18 -14 34 -9 57 4 18 6 42 5 55 -4 32 10 27 38
-13z m-2665 -51 c20 -19 21 -38 2 -31 -8 3 -16 1 -19 -6 -2 -8 -11 -7 -29 5
-21 14 -29 15 -43 4 -10 -7 -15 -18 -11 -24 4 -7 1 -12 -7 -12 -8 0 -30 -25
-48 -56 -19 -30 -51 -78 -72 -105 -21 -27 -42 -60 -45 -74 -4 -13 -11 -25 -17
-26 -15 -3 -36 -60 -30 -81 4 -10 2 -18 -4 -18 -6 0 -11 -8 -11 -17 0 -9 -3
-13 -7 -10 -8 8 -45 -92 -38 -104 3 -4 1 -10 -4 -14 -6 -3 -8 -12 -4 -21 3 -9
-6 -27 -22 -43 -81 -85 -102 -108 -114 -133 -8 -15 -18 -25 -22 -22 -11 6 -66
-22 -73 -38 -5 -10 -7 -10 -12 0 -3 6 -14 12 -25 12 -10 0 -28 9 -40 21 -16
16 -18 23 -8 35 17 21 52 13 64 -13 14 -33 22 -30 71 29 6 7 24 25 40 40 64
60 123 152 153 240 10 29 30 79 44 111 30 66 206 317 244 347 31 24 66 26 87
4z m361 -114 c10 -11 16 -22 13 -25 -8 -9 -69 26 -63 36 10 15 31 10 50 -11z
m-181 -157 c21 -29 13 -55 -20 -62 -10 -1 -27 -10 -36 -19 -10 -8 -18 -12 -18
-8 0 4 -6 4 -12 -1 -7 -4 -24 -9 -38 -11 l-25 -3 25 28 c52 59 94 103 100 103
3 0 14 -12 24 -27z m-370 -55 c20 -28 21 -44 1 -28 -8 7 -15 18 -15 25 0 8 -6
16 -12 18 -10 4 -10 6 -1 6 6 1 19 -9 27 -21z m-534 -8 c11 -6 24 -19 30 -30
10 -19 10 -19 -32 0 -24 11 -53 20 -66 20 -13 0 -20 4 -17 10 8 13 61 13 85 0z
m1228 -61 c17 -26 10 -33 -23 -25 -16 4 -25 13 -25 26 0 27 31 26 48 -1z
m-173 -150 c9 -27 2 -33 -44 -35 -20 -1 -47 -7 -60 -13 -12 -7 -26 -9 -29 -5
-4 4 -2 9 4 11 7 2 29 17 50 33 46 35 70 38 79 9z m-835 -47 c16 -58 14 -61
-37 -59 l-48 2 -3 45 -3 45 40 2 c39 1 41 -1 51 -35z m335 8 c4 -6 2 -17 -5
-24 -6 -8 -8 -26 -4 -40 4 -17 0 -35 -11 -52 -9 -14 -14 -33 -10 -41 4 -13 11
-10 36 15 17 18 35 32 40 32 17 0 9 -22 -18 -49 -26 -25 -34 -27 -103 -26 -70
0 -75 1 -78 23 -2 13 7 35 22 53 14 17 26 37 26 44 0 13 75 73 92 75 4 0 10
-5 13 -10z m369 -42 c7 -5 4 -8 -6 -8 -12 0 -18 7 -17 23 0 15 2 17 6 7 3 -8
11 -18 17 -22z m-51 -19 c4 -16 3 -18 -9 -8 -16 13 -19 29 -5 29 5 0 11 -9 14
-21z m47 -64 c0 -5 -5 -3 -10 5 -5 8 -10 20 -10 25 0 6 5 3 10 -5 5 -8 10 -19
10 -25z m-198 -74 c1 -27 5 -31 30 -31 15 0 28 -3 28 -7 -1 -14 -44 -60 -74
-78 -26 -17 -29 -18 -38 -2 -5 9 -18 17 -28 17 -17 0 -18 3 -8 26 9 20 17 24
35 19 19 -4 23 -1 23 19 0 26 20 79 27 72 2 -2 5 -18 5 -35z m-92 -142 c0 -5
-9 -9 -20 -9 -22 0 -27 16 -7 23 15 5 27 -1 27 -14z m571 -45 c-11 -15 -21
-21 -21 -14 0 14 32 50 39 44 2 -2 -6 -15 -18 -30z m-462 -45 c-19 -12 -24 -2
-8 17 9 11 14 13 17 4 3 -7 -2 -16 -9 -21z m-184 -229 c-10 -11 -22 -17 -28
-13 -5 3 1 14 14 24 30 22 38 16 14 -11z m-281 -36 c3 -8 2 -12 -4 -9 -6 3
-10 1 -10 -4 0 -16 -26 -13 -39 3 -10 11 -8 15 6 19 33 9 41 7 47 -9z m149
-11 c-7 -3 -23 -13 -35 -23 l-23 -19 30 -1 c29 -1 81 -18 59 -19 -6 -1 -14
-19 -18 -41 -3 -22 -11 -40 -16 -40 -6 0 -10 5 -10 10 0 6 -5 10 -12 10 -17 0
-57 40 -54 54 2 6 1 8 -1 4 -9 -15 -24 -8 -21 9 2 10 -2 18 -9 18 -6 0 -15 3
-19 7 -9 9 39 29 91 38 39 6 62 2 38 -7z m1903 -144 l120 -4 -8 -45 c-4 -25
-13 -55 -20 -68 -13 -26 3 -25 -189 -6 l-60 6 -30 64 c-16 36 -29 66 -29 68 0
2 21 0 48 -4 26 -5 101 -10 168 -11z m812 -99 c33 -31 26 -42 -12 -19 -46 27
-68 15 -103 -59 -15 -31 -32 -63 -39 -69 -7 -7 -18 -30 -24 -50 -7 -21 -23
-49 -35 -63 -13 -14 -26 -35 -30 -47 -3 -13 -11 -23 -16 -23 -5 0 -9 -5 -9
-10 0 -6 -9 -21 -21 -33 l-20 -22 18 45 c16 41 98 185 162 285 56 89 87 104
129 65z m-754 -198 c27 -20 55 -51 62 -69 l13 -31 -29 15 c-17 8 -30 19 -30
24 0 5 -5 9 -11 9 -6 0 -25 11 -43 25 -18 14 -43 25 -54 25 -24 0 -30 25 -9
33 29 12 55 5 101 -31z m-1999 -99 c-7 -65 -7 -65 -22 -37 -15 30 -13 58 8
109 10 25 13 27 17 11 2 -10 1 -48 -3 -83z m140 79 c35 -25 75 -86 75 -113 0
-31 -21 -81 -47 -111 -12 -14 -13 -23 -4 -49 6 -18 11 -42 11 -54 0 -18 -5
-21 -29 -17 -23 3 -33 13 -46 45 l-18 42 -6 -40 c-6 -37 -9 -40 -40 -43 l-33
-3 6 58 c4 32 8 99 11 148 5 89 5 90 30 88 21 -1 25 2 20 16 -4 12 3 20 22 28
36 14 36 14 48 5z m313 -174 c1 -95 -1 -168 -7 -168 -4 0 -23 3 -40 6 -25 5
-31 11 -31 33 0 37 -11 48 -44 47 -23 -1 -31 -7 -39 -31 -15 -45 -26 -55 -63
-55 -19 0 -34 2 -34 4 0 2 7 23 16 47 9 24 27 85 39 134 l22 90 39 5 c34 4 39
9 42 33 3 27 6 28 50 25 l47 -3 3 -167z m1984 155 c23 -21 23 -36 -4 -100 -26
-63 -45 -70 -116 -41 -51 21 -52 21 -67 2 -11 -14 -14 -15 -14 -4 0 20 85 132
112 147 31 17 67 16 89 -4z m-1764 -8 c2 -2 -6 -21 -18 -44 -15 -31 -26 -41
-44 -41 -15 0 -26 7 -29 18 -3 11 -5 9 -6 -8 0 -14 13 -45 29 -69 35 -51 35
-50 15 -98 -25 -59 -43 -73 -92 -73 -23 0 -43 3 -43 6 0 3 11 19 25 36 14 17
25 42 25 59 0 17 -11 45 -25 63 -35 46 -33 86 8 130 33 34 35 35 93 29 32 -3
60 -7 62 -8z m194 -13 c4 -4 3 -27 -2 -52 -5 -25 -18 -94 -30 -155 -27 -145
-23 -136 -60 -124 -33 12 -34 16 -21 72 8 32 7 38 -7 35 -8 -2 -20 -21 -26
-43 -11 -37 -14 -40 -46 -40 -40 0 -40 -5 -18 170 l13 100 48 3 c43 3 47 1 47
-20 0 -13 -5 -42 -10 -66 -6 -24 -7 -48 -4 -54 12 -19 23 14 29 92 9 103 9
104 47 96 18 -3 36 -10 40 -14z m397 -87 c13 -75 5 -200 -16 -233 -11 -18 -14
-52 -11 -147 l3 -123 -40 35 c-58 52 -65 62 -66 107 l-1 41 -11 -35 c-6 -19
-11 -36 -12 -38 -1 -1 -18 5 -38 13 -45 18 -44 10 -8 225 l27 165 37 9 c21 5
36 14 34 20 -2 6 10 21 27 33 28 19 33 19 48 6 9 -8 21 -43 27 -78z m-219 72
c31 -5 38 -16 31 -49 -7 -32 -9 -33 -49 -30 -42 3 -42 3 -42 -31 0 -32 3 -35
36 -41 34 -7 35 -9 28 -39 -9 -46 -12 -48 -51 -45 -29 2 -37 -1 -44 -20 -8
-20 -4 -25 27 -38 36 -15 36 -15 29 -62 -4 -26 -9 -49 -11 -51 -2 -2 -31 8
-64 23 -34 14 -68 26 -76 26 -18 0 -18 17 0 133 8 50 17 115 20 142 10 99 10
98 85 91 36 -4 73 -8 81 -9z m1792 -154 c30 -44 33 -56 35 -128 1 -44 0 -72
-3 -62 -4 11 -15 17 -34 17 -22 0 -32 7 -44 32 -9 17 -16 39 -16 50 0 27 -19
22 -30 -8 -6 -14 -14 -22 -20 -19 -15 9 -12 41 5 55 8 7 12 16 9 21 -8 14 -40
-7 -63 -43 -67 -105 -64 -103 -97 -73 -25 24 -26 26 -11 43 10 10 17 26 17 35
0 9 4 17 8 17 5 0 22 11 38 25 36 32 71 41 95 26 25 -15 29 -14 29 8 0 20 25
51 40 51 5 0 24 -21 42 -47z m-652 -125 c0 -11 -7 -18 -19 -18 -25 0 -36 17
-21 35 7 9 8 15 0 20 -5 3 -10 11 -10 17 0 6 11 1 25 -12 14 -13 25 -32 25
-42z m-2229 -11 c-18 -18 -25 2 -10 30 14 26 14 26 17 4 2 -13 -1 -28 -7 -34z
m2607 -45 c-1 -9 1 -26 5 -37 9 -27 -8 -54 -24 -38 -13 13 -3 107 11 98 5 -3
8 -13 8 -23z m192 18 c0 -5 -5 -10 -11 -10 -5 0 -7 5 -4 10 3 6 8 10 11 10 2
0 4 -4 4 -10z m-600 -24 c0 -2 -7 -7 -16 -10 -8 -3 -12 -2 -9 4 6 10 25 14 25
6z m663 -76 c-3 -11 -7 -20 -9 -20 -2 0 -4 9 -4 20 0 11 4 20 9 20 5 0 7 -9 4
-20z m-117 -60 c19 0 46 -49 39 -70 -7 -24 -23 -26 -31 -5 -8 21 -64 46 -86
39 -39 -12 -77 24 -52 49 11 10 44 -12 45 -31 0 -9 5 -2 10 16 5 18 14 30 19
27 6 -4 13 2 17 12 6 16 9 14 17 -9 5 -16 15 -28 22 -28z m-2814 -89 c-18 -3
-33 -10 -33 -16 0 -5 15 -13 33 -16 l33 -6 -37 -2 c-26 -1 -38 -6 -38 -15 0
-10 13 -16 38 -19 l37 -4 -42 -1 c-41 -2 -43 -1 -43 27 0 50 9 61 49 60 l36
-2 -33 -6z m139 -1 c5 0 9 -18 9 -40 l0 -40 -44 0 c-48 0 -56 9 -45 55 7 29 7
29 8 -7 1 -36 2 -38 36 -38 47 0 49 29 3 32 l-33 1 33 4 c38 5 41 15 10 32
-14 7 -16 9 -5 6 10 -3 23 -5 28 -5z m102 -8 c3 -4 -9 -7 -26 -7 -27 0 -32 -4
-35 -27 -3 -22 1 -28 17 -29 12 -1 26 -2 33 -3 7 -1 15 10 19 24 6 20 7 21 8
5 1 -36 -14 -48 -53 -41 -29 6 -36 11 -36 31 0 40 11 55 40 55 16 0 31 -3 33
-8z m392 -32 c19 -36 28 -37 45 -6 21 41 40 41 40 1 0 -19 -4 -35 -9 -35 -4 0
-6 12 -4 28 l5 27 -27 -32 c-14 -18 -30 -33 -35 -33 -4 0 -13 13 -20 30 -14
35 -29 31 -31 -8 -1 -18 -3 -21 -6 -9 -6 24 5 67 17 67 5 0 16 -13 25 -30z
m165 26 c0 -2 7 -21 16 -42 11 -27 12 -35 3 -26 -17 15 -61 16 -77 0 -22 -22
-13 4 14 39 21 28 44 43 44 29z m114 -2 c9 -3 16 -10 16 -14 0 -5 -13 -3 -30
3 -34 13 -40 9 -43 -29 -2 -26 1 -29 32 -32 24 -3 32 0 28 10 -2 7 -10 12 -16
11 -6 -2 -11 2 -11 7 0 12 10 13 29 1 21 -13 5 -41 -23 -41 -38 0 -56 10 -56
32 0 47 31 69 74 52z m-598 -39 c18 -44 18 -51 -1 -35 -8 7 -24 10 -36 7 -16
-4 -19 -2 -14 11 4 9 10 25 12 35 8 27 23 20 39 -18z m67 28 c-46 -6 -44 -33
1 -33 28 0 35 4 39 23 2 12 4 2 4 -23 1 -25 -1 -37 -4 -27 -3 12 -14 17 -38
17 -24 0 -35 -5 -38 -17 -3 -10 -5 1 -6 25 l-1 42 38 -2 c36 -1 36 -1 5 -5z
m157 -23 c0 -16 -2 -30 -4 -30 -2 0 -6 14 -8 30 -3 17 -1 30 4 30 4 0 8 -13 8
-30z m479 -6 c15 -41 14 -43 -19 -33 -18 5 -20 7 -7 8 12 1 17 7 15 18 -4 23
-19 22 -32 -2 -12 -22 -28 -36 -34 -30 -5 5 48 75 57 75 4 0 13 -16 20 -36z
m111 16 c0 -12 -50 -54 -56 -47 -3 3 3 12 15 19 28 17 26 26 -6 31 -20 3 -17
4 10 4 20 -1 37 -4 37 -7z m30 -35 c0 -19 -4 -35 -8 -35 -4 0 -6 16 -4 35 2
19 6 35 8 35 2 0 4 -16 4 -35z m60 4 l23 -32 13 29 13 29 -6 -35 c-3 -19 -8
-37 -10 -40 -3 -3 -17 11 -33 30 l-28 35 -5 -35 c-4 -33 -4 -33 -5 8 -2 50 6
53 38 11z m98 14 c-34 -5 -37 -22 -5 -24 l22 -2 -22 -4 c-13 -2 -23 -11 -23
-18 0 -7 10 -16 23 -18 19 -4 18 -4 -5 -6 -26 -1 -28 2 -28 39 0 39 1 40 33
39 30 -2 30 -2 5 -6z m-238 -43 c12 -8 9 -10 -13 -10 -16 0 -26 4 -22 10 8 12
16 12 35 0z m1260 -1024 c0 -2 -7 -7 -16 -10 -8 -3 -12 -2 -9 4 6 10 25 14 25
6z m57 -68 c-3 -8 -6 -5 -6 6 -1 11 2 17 5 13 3 -3 4 -12 1 -19z m-130 -80
c-3 -7 -5 -2 -5 12 0 14 2 19 5 13 2 -7 2 -19 0 -25z m142 -13 c1 -5 -6 -2
-15 7 -10 9 -13 21 -8 29 5 9 9 8 15 -7 4 -10 8 -23 8 -29z m-74 -15 c3 -6 -1
-7 -9 -4 -18 7 -21 14 -7 14 6 0 13 -4 16 -10z m-26 -192 c1 21 31 -13 31 -35
0 -14 -2 -15 -9 -4 -7 11 -10 9 -16 -8 -9 -30 -25 -26 -25 7 0 15 -2 45 -5 67
l-5 40 14 -40 c8 -22 15 -34 15 -27z"/>
<path d="M1560 2670 c0 -33 2 -60 6 -60 3 0 12 16 19 35 11 24 12 41 5 60 -17
43 -30 28 -30 -35z"/>
<path d="M1807 2654 c-19 -60 -16 -74 14 -74 17 0 19 7 19 59 0 33 -4 62 -8
65 -5 3 -16 -20 -25 -50z"/>
<path d="M2656 2670 c-2 -8 -7 -35 -10 -60 -3 -25 -8 -65 -12 -90 l-7 -45 28
25 c58 53 66 106 25 160 -14 19 -20 21 -24 10z"/>
<path d="M2130 2140 c-9 -17 -8 -20 10 -20 11 0 20 6 20 14 0 24 -18 28 -30 6z"/>
<path d="M1646 2135 c-9 -23 -8 -25 9 -25 17 0 19 9 6 28 -7 11 -10 10 -15 -3z"/>
<path d="M3599 5806 c-3 -3 -58 -16 -124 -30 -66 -14 -196 -41 -290 -61 -93
-20 -244 -52 -335 -71 -91 -19 -208 -44 -260 -55 -52 -11 -115 -24 -140 -29
-348 -65 -340 -63 -329 -75 6 -5 131 15 274 43 55 11 161 32 235 46 308 59
452 87 585 114 77 16 196 39 265 52 69 12 135 29 147 36 12 8 30 14 40 14 15
0 16 2 3 10 -15 10 -63 14 -71 6z"/>
<path d="M605 5679 c-60 -16 -137 -35 -170 -43 -253 -62 -364 -86 -397 -86
-38 0 -38 0 -38 -40 0 -22 2 -40 5 -40 3 0 47 15 98 34 78 29 195 65 347 106
19 5 78 21 130 36 52 15 107 29 122 31 26 5 49 34 25 32 -7 0 -61 -14 -122
-30z"/>
<path d="M4315 5500 c4 -6 -13 -10 -44 -10 -27 0 -53 -4 -56 -10 -9 -15 88
-12 109 3 17 13 18 14 2 20 -10 4 -15 3 -11 -3z"/>
<path d="M4064 5439 c-3 -6 0 -15 7 -20 19 -12 32 -11 24 1 -3 6 1 10 10 10 9
0 13 5 10 10 -8 13 -42 13 -51 -1z"/>
<path d="M718 5225 c-5 -5 -126 -30 -188 -40 -14 -2 -86 -15 -160 -29 -108
-20 -343 -56 -365 -56 -3 0 -5 -18 -5 -40 0 -45 1 -46 33 -26 35 22 516 138
675 163 31 5 41 16 23 27 -4 3 -10 3 -13 1z"/>
<path d="M3590 5123 c-14 -2 -99 -15 -190 -29 -91 -13 -194 -29 -230 -35 -36
-6 -99 -14 -140 -19 -41 -5 -120 -15 -175 -24 -55 -8 -131 -18 -170 -22 -39
-5 -58 -10 -43 -12 35 -4 900 96 974 113 12 3 24 12 28 20 6 15 -2 17 -54 8z"/>
<path d="M2555 4970 c-3 -5 1 -10 9 -10 9 0 16 5 16 10 0 6 -4 10 -9 10 -6 0
-13 -4 -16 -10z"/>
<path d="M730 4734 c0 -9 5 -14 12 -12 18 6 21 28 4 28 -9 0 -16 -7 -16 -16z"/>
<path d="M555 4729 c-207 -25 -369 -39 -440 -40 -116 -1 -115 0 -114 -67 0
-48 2 -54 11 -34 6 12 19 22 28 22 9 0 36 6 61 14 69 21 308 61 527 88 50 7
92 15 92 20 0 10 -70 9 -165 -3z"/>
<path d="M5235 4720 c-4 -6 1 -18 11 -25 22 -16 26 -17 48 -9 21 8 20 20 -1
27 -10 2 -25 8 -34 12 -10 3 -20 1 -24 -5z"/>
<path d="M3535 4439 c-88 -10 -450 -35 -565 -39 -43 -2 -44 -2 -15 -11 17 -5
44 -6 60 -3 17 2 91 6 165 8 149 4 440 25 452 32 11 7 0 24 -15 23 -7 -1 -43
-5 -82 -10z"/>
<path d="M0 4261 c0 -134 3 -172 12 -168 7 2 13 13 13 24 0 12 3 25 7 29 5 4
8 15 8 23 0 26 224 55 585 77 232 15 145 23 -219 21 l-380 -2 -3 75 c-3 41 -8
79 -14 85 -5 5 -9 -56 -9 -164z"/>
<path d="M2838 4383 c12 -2 30 -2 40 0 9 3 -1 5 -23 4 -22 0 -30 -2 -17 -4z"/>
<path d="M2728 4373 c7 -3 16 -2 19 1 4 3 -2 6 -13 5 -11 0 -14 -3 -6 -6z"/>
<path d="M2498 4363 c12 -2 30 -2 40 0 9 3 -1 5 -23 4 -22 0 -30 -2 -17 -4z"/>
<path d="M2568 4363 c7 -3 16 -2 19 1 4 3 -2 6 -13 5 -11 0 -14 -3 -6 -6z"/>
<path d="M60 4071 c0 -6 5 -13 10 -16 6 -3 10 1 10 9 0 9 -4 16 -10 16 -5 0
-10 -4 -10 -9z"/>
<path d="M5496 3901 c-4 -7 -5 -15 -2 -18 9 -9 19 4 14 18 -4 11 -6 11 -12 0z"/>
<path d="M3460 3780 l-45 -6 65 -8 c75 -9 132 -5 137 9 3 11 -83 13 -157 5z"/>
<path d="M160 3530 c0 -32 1 -33 17 -17 16 16 16 18 0 34 -16 16 -17 15 -17
-17z"/>
</g>
</svg>
